<?xml version="1.0" encoding="utf-8"?>
<!-- Generator: Adobe Illustrator 16.0.0, SVG Export Plug-In . SVG Version: 6.00 Build 0)  -->
<!DOCTYPE svg PUBLIC "-//W3C//DTD SVG 1.1//EN" "http://www.w3.org/Graphics/SVG/1.1/DTD/svg11.dtd">
<svg version="1.1" id="Ñëîé_1" xmlns="http://www.w3.org/2000/svg" xmlns:xlink="http://www.w3.org/1999/xlink" x="0px" y="0px"
	 width="258.73px" height="124.921px" viewBox="0 0 258.73 124.921" enable-background="new 0 0 258.73 124.921"
	 xml:space="preserve">
<linearGradient id="SVGID_1_" gradientUnits="userSpaceOnUse" x1="-563.0532" y1="639.7607" x2="-601.3981" y2="741.0496" gradientTransform="matrix(1 0 0 -1 668 764.5449)">
	<stop  offset="0.0753" style="stop-color:#77C4F3"/>
	<stop  offset="0.5591" style="stop-color:#42B5F0"/>
	<stop  offset="1" style="stop-color:#449AD8"/>
</linearGradient>
<path fill="url(#SVGID_1_)" d="M142.427,37.776l-6.559,3.496c-8.721-14.2-22.158-24.593-38.238-29.474
	c-2.589-0.785-5.203-1.415-7.823-1.889c-15.031-2.713-30.431-0.313-44.104,6.993C18.559,31.405,8.275,65.287,22.778,92.431
	c5.78,10.819,15.428,18.739,27.166,22.302c11.738,3.564,24.16,2.342,34.979-3.438c8.956-4.785,15.51-12.771,18.46-22.486
	c2.725-8.979,2.067-18.439-1.825-26.891l6.647-3.11L85.602,43.025l-2.367,27.467l6.785-3.176c2.553,5.598,2.98,11.854,1.177,17.792
	c-1.961,6.461-6.321,11.772-12.276,14.954c-7.819,4.177-16.798,5.061-25.28,2.484c-8.483-2.575-15.455-8.299-19.633-16.118
	c-11.193-20.951-3.256-47.101,17.694-58.295c25.717-13.74,57.519-5.083,72.904,19.14l-6.507,3.469l23.395,14.586L142.427,37.776z"/>
<linearGradient id="SVGID_2_" gradientUnits="userSpaceOnUse" x1="-552.9551" y1="701.7637" x2="-426.7266" y2="701.7637" gradientTransform="matrix(1 0 0 -1 668 764.543)">
	<stop  offset="0.086" style="stop-color:#7D6CB0"/>
	<stop  offset="0.5806" style="stop-color:#67297B"/>
	<stop  offset="0.8021" style="stop-color:#652879"/>
	<stop  offset="0.9178" style="stop-color:#5E2671"/>
	<stop  offset="0.9839" style="stop-color:#562368"/>
</linearGradient>
<path fill="url(#SVGID_2_)" d="M115.045,87.785l6.56-3.498c8.721,14.199,22.156,24.594,38.236,29.475
	c2.59,0.786,5.203,1.415,7.824,1.888c15.029,2.713,30.428,0.314,44.104-6.991c27.145-14.504,37.43-48.384,22.926-75.527
	c-5.779-10.82-15.428-18.739-27.164-22.303c-11.738-3.563-24.16-2.344-34.98,3.438c-8.952,4.785-15.51,12.771-18.459,22.485
	c-2.727,8.978-2.068,18.438,1.824,26.89l-6.646,3.11l22.603,15.783l2.369-27.469l-6.787,3.176
	c-2.552-5.598-2.979-11.854-1.179-17.793c1.963-6.462,6.32-11.771,12.276-14.953c7.82-4.178,16.798-5.06,25.279-2.484
	c8.483,2.574,15.455,8.299,19.635,16.118c11.193,20.95,3.255,47.102-17.696,58.295c-25.714,13.739-57.517,5.082-72.901-19.14
	l6.508-3.47l-23.395-14.586L115.045,87.785z"/>
</svg>
