<?xml version="1.0" encoding="utf-8"?>
<!-- Generator: Adobe Illustrator 16.0.0, SVG Export Plug-In . SVG Version: 6.00 Build 0)  -->
<!DOCTYPE svg PUBLIC "-//W3C//DTD SVG 1.1//EN" "http://www.w3.org/Graphics/SVG/1.1/DTD/svg11.dtd">
<svg version="1.1" id="Ñëîé_1" xmlns="http://www.w3.org/2000/svg" xmlns:xlink="http://www.w3.org/1999/xlink" x="0px" y="0px"
	 width="240.46px" height="125.508px" viewBox="8.128 0 240.46 125.508" enable-background="new 8.128 0 240.46 125.508"
	 xml:space="preserve">
<g>
	
		<linearGradient id="SVGID_1_" gradientUnits="userSpaceOnUse" x1="-229.0547" y1="956.2385" x2="-267.3994" y2="854.9502" gradientTransform="matrix(1 0 0 -1 334 957.0161)">
		<stop  offset="0.0753" style="stop-color:#77C4F3"/>
		<stop  offset="0.5591" style="stop-color:#42B5F0"/>
		<stop  offset="1" style="stop-color:#449AD8"/>
	</linearGradient>
	<path fill="url(#SVGID_1_)" d="M141.493,60.232l-23.394,14.586l6.507,3.469c-15.385,24.223-47.187,32.88-72.904,19.14
		c-20.95-11.194-28.887-37.344-17.694-58.295c4.178-7.819,11.15-13.543,19.633-16.119c8.482-2.575,17.461-1.692,25.28,2.485
		c5.955,3.182,10.315,8.493,12.276,14.954C93,46.39,92.573,52.646,90.02,58.244l-6.785-3.176l2.367,27.467l22.603-15.782
		l-6.647-3.111c3.892-8.451,4.55-17.912,1.825-26.89c-2.95-9.716-9.504-17.701-18.46-22.486c-10.819-5.78-23.241-7.002-34.979-3.438
		C38.206,14.391,28.558,22.311,22.778,33.13c-14.503,27.143-4.219,61.025,22.926,75.527c13.673,7.307,29.073,9.706,44.104,6.993
		c2.62-0.473,5.234-1.103,7.823-1.888c16.08-4.881,29.517-15.274,38.237-29.474l6.559,3.496L141.493,60.232z"/>
	
		<linearGradient id="SVGID_2_" gradientUnits="userSpaceOnUse" x1="-218.9531" y1="894.2356" x2="-92.7251" y2="894.2356" gradientTransform="matrix(1 0 0 -1 334 957.0161)">
		<stop  offset="0.086" style="stop-color:#7D6CB0"/>
		<stop  offset="0.5806" style="stop-color:#67297B"/>
		<stop  offset="0.8021" style="stop-color:#652879"/>
		<stop  offset="0.9178" style="stop-color:#5E2671"/>
		<stop  offset="0.9839" style="stop-color:#562368"/>
	</linearGradient>
	<path fill="url(#SVGID_2_)" d="M115.982,65.329l23.395-14.586l-6.509-3.469c15.386-24.222,47.188-32.879,72.902-19.14
		c20.951,11.193,28.89,37.344,17.696,58.295c-4.179,7.819-11.151,13.544-19.634,16.118c-8.482,2.575-17.46,1.693-25.279-2.485
		c-5.957-3.181-10.314-8.491-12.277-14.953c-1.801-5.939-1.373-12.195,1.179-17.793l6.786,3.176l-2.368-27.468l-22.603,15.783
		l6.646,3.11c-3.893,8.452-4.551,17.912-1.825,26.89c2.95,9.715,9.507,17.7,18.46,22.485c10.819,5.782,23.242,7.002,34.98,3.438
		c11.736-3.563,21.385-11.482,27.164-22.302c14.504-27.144,4.219-61.024-22.926-75.527c-13.676-7.306-29.074-9.705-44.104-6.992
		c-2.62,0.473-5.234,1.102-7.823,1.888c-16.081,4.881-29.517,15.275-38.237,29.474l-6.56-3.497L115.982,65.329z"/>
</g>
</svg>
