<?xml version="1.0" encoding="utf-8"?>
<!-- Generator: Adobe Illustrator 16.0.0, SVG Export Plug-In . SVG Version: 6.00 Build 0)  -->
<!DOCTYPE svg PUBLIC "-//W3C//DTD SVG 1.1//EN" "http://www.w3.org/Graphics/SVG/1.1/DTD/svg11.dtd">
<svg version="1.1" id="Ñëîé_1" xmlns="http://www.w3.org/2000/svg" xmlns:xlink="http://www.w3.org/1999/xlink" x="0px" y="0px"
	 width="248.588px" height="152.016px" viewBox="0 0 248.588 152.016" enable-background="new 0 0 248.588 152.016"
	 xml:space="preserve">
<radialGradient id="SVGID_1_" cx="426.7632" cy="-9448.459" r="207.6865" gradientTransform="matrix(0.6229 0 0 0.0487 -136.3952 600.4677)" gradientUnits="userSpaceOnUse">
	<stop  offset="0" style="stop-color:#666666"/>
	<stop  offset="0.17" style="stop-color:#939393"/>
	<stop  offset="0.3443" style="stop-color:#BABABA"/>
	<stop  offset="0.5173" style="stop-color:#D8D8D8"/>
	<stop  offset="0.6863" style="stop-color:#EEEEEE"/>
	<stop  offset="0.8494" style="stop-color:#FBFBFB"/>
	<stop  offset="1" style="stop-color:#FFFFFF"/>
</radialGradient>
<ellipse opacity="0.4" fill="url(#SVGID_1_)" cx="129.435" cy="140.328" rx="129.435" ry="10.109"/>
<g>
	<linearGradient id="SVGID_2_" gradientUnits="userSpaceOnUse" x1="104.9448" y1="0.7773" x2="66.6001" y2="102.0656">
		<stop  offset="0.0753" style="stop-color:#77C4F3"/>
		<stop  offset="0.5591" style="stop-color:#42B5F0"/>
		<stop  offset="1" style="stop-color:#449AD8"/>
	</linearGradient>
	<path fill="url(#SVGID_2_)" d="M141.493,60.232l-23.394,14.586l6.507,3.468c-15.385,24.223-47.187,32.88-72.904,19.14
		C30.752,86.232,22.815,60.082,34.008,39.131c4.178-7.819,11.15-13.543,19.633-16.119c8.482-2.575,17.461-1.692,25.28,2.485
		c5.955,3.182,10.315,8.493,12.276,14.954C93,46.39,92.573,52.646,90.02,58.244l-6.785-3.175l2.367,27.466l22.603-15.782
		l-6.647-3.111c3.892-8.451,4.55-17.912,1.825-26.89c-2.95-9.716-9.504-17.701-18.46-22.486c-10.819-5.78-23.241-7.002-34.979-3.438
		C38.206,14.391,28.558,22.311,22.778,33.13c-14.503,27.143-4.219,61.025,22.926,75.527c13.673,7.307,29.073,9.706,44.104,6.994
		c2.62-0.473,5.234-1.103,7.823-1.888c16.08-4.881,29.516-15.275,38.237-29.474l6.559,3.496L141.493,60.232z"/>
	<linearGradient id="SVGID_3_" gradientUnits="userSpaceOnUse" x1="115.0483" y1="62.7808" x2="241.2749" y2="62.7808">
		<stop  offset="0.086" style="stop-color:#7D6CB0"/>
		<stop  offset="0.5806" style="stop-color:#67297B"/>
		<stop  offset="0.8021" style="stop-color:#652879"/>
		<stop  offset="0.9178" style="stop-color:#5E2671"/>
		<stop  offset="0.9839" style="stop-color:#562368"/>
	</linearGradient>
	<path fill="url(#SVGID_3_)" d="M115.982,65.329l23.395-14.586l-6.509-3.468c15.386-24.222,47.188-32.879,72.903-19.14
		c20.95,11.193,28.889,37.344,17.696,58.295c-4.179,7.819-11.151,13.544-19.634,16.118c-8.483,2.575-17.46,1.693-25.279-2.485
		c-5.958-3.181-10.315-8.492-12.277-14.953c-1.802-5.94-1.374-12.196,1.178-17.793l6.786,3.175l-2.368-27.467l-22.602,15.783
		l6.646,3.11c-3.892,8.452-4.551,17.912-1.825,26.89c2.95,9.715,9.506,17.7,18.46,22.485c10.819,5.782,23.242,7.002,34.98,3.439
		c11.736-3.563,21.385-11.483,27.164-22.302c14.504-27.144,4.219-61.025-22.925-75.527c-13.676-7.306-29.074-9.706-44.104-6.993
		c-2.62,0.473-5.235,1.102-7.823,1.888c-16.081,4.881-29.517,15.275-38.237,29.474l-6.56-3.497L115.982,65.329z"/>
</g>
</svg>
